<svg width="25" height="25" viewBox="0 0 25 25" fill="none" xmlns="http://www.w3.org/2000/svg">
<path d="M2.39278 24.125C1.9407 24.2326 1.54782 24.1196 1.21414 23.7859C0.880455 23.4523 0.767435 23.0594 0.875073 22.6073L2.16674 16.4396L8.56049 22.8333L2.39278 24.125ZM8.56049 22.8333L2.16674 16.4396L16.9563 1.65C17.4515 1.15486 18.065 0.907288 18.7969 0.907288C19.5289 0.907288 20.1424 1.15486 20.6376 1.65L23.3501 4.3625C23.8452 4.85764 24.0928 5.47118 24.0928 6.20312C24.0928 6.93507 23.8452 7.54861 23.3501 8.04375L15.9553 15.4385L8.56049 22.8333ZM18.7969 3.45833L5.4282 16.8271L8.17299 19.5719L21.5417 6.20312L18.7969 3.45833Z" fill="black"/>
</svg>
