<svg width="23" height="23" viewBox="0 0 23 23" fill="none" xmlns="http://www.w3.org/2000/svg">
<path d="M2.55556 20.4444H4.37639L16.8667 7.95417L15.0458 6.13333L2.55556 18.6236V20.4444ZM0 23V17.5694L16.8667 0.734722C17.1222 0.500463 17.4044 0.319444 17.7132 0.191667C18.022 0.0638889 18.3468 0 18.6875 0C19.0282 0 19.3583 0.0638889 19.6778 0.191667C19.9972 0.319444 20.2741 0.511111 20.5083 0.766667L22.2653 2.55556C22.5208 2.78981 22.7072 3.06667 22.8243 3.38611C22.9414 3.70556 23 4.025 23 4.34444C23 4.68519 22.9414 5.00995 22.8243 5.31875C22.7072 5.62755 22.5208 5.90972 22.2653 6.16528L5.43056 23H0ZM15.9403 7.05972L15.0458 6.13333L16.8667 7.95417L15.9403 7.05972Z" fill="black"/>
</svg>
