<svg width="16" height="16" viewBox="0 0 16 16" fill="none" xmlns="http://www.w3.org/2000/svg">
<path d="M15.102 14.1191L10.4645 9.48161C11.1841 8.55126 11.5734 7.41376 11.5734 6.21733C11.5734 4.78518 11.0145 3.44233 10.0038 2.42983C8.99306 1.41733 7.64663 0.860184 6.21627 0.860184C4.78592 0.860184 3.43949 1.41911 2.42877 2.42983C1.41627 3.44054 0.859131 4.78518 0.859131 6.21733C0.859131 7.64768 1.41806 8.99411 2.42877 10.0048C3.43949 11.0173 4.78413 11.5745 6.21627 11.5745C7.4127 11.5745 8.54842 11.1852 9.47877 10.4673L14.1163 15.103C14.1299 15.1166 14.146 15.1274 14.1638 15.1348C14.1816 15.1422 14.2006 15.146 14.2198 15.146C14.2391 15.146 14.2581 15.1422 14.2759 15.1348C14.2937 15.1274 14.3098 15.1166 14.3234 15.103L15.102 14.3263C15.1156 14.3127 15.1264 14.2965 15.1338 14.2787C15.1411 14.261 15.1449 14.2419 15.1449 14.2227C15.1449 14.2034 15.1411 14.1844 15.1338 14.1666C15.1264 14.1489 15.1156 14.1327 15.102 14.1191ZM9.04485 9.0459C8.2877 9.80126 7.28413 10.2173 6.21627 10.2173C5.14842 10.2173 4.14485 9.80126 3.3877 9.0459C2.63235 8.28876 2.21627 7.28518 2.21627 6.21733C2.21627 5.14947 2.63235 4.14411 3.3877 3.38876C4.14485 2.6334 5.14842 2.21733 6.21627 2.21733C7.28413 2.21733 8.28949 2.63161 9.04485 3.38876C9.8002 4.1459 10.2163 5.14947 10.2163 6.21733C10.2163 7.28518 9.8002 8.29054 9.04485 9.0459Z" fill="black" fill-opacity="0.45"/>
</svg>
